<svg width="725" height="74" viewBox="0 0 725 74" fill="none" xmlns="http://www.w3.org/2000/svg">
<path d="M3.48 69V55.6L4.12 56.28H0.18V55H4.92V69H3.48ZM8.00656 69V67.98L13.8266 62.28C14.3599 61.76 14.7599 61.3067 15.0266 60.92C15.2932 60.52 15.4732 60.1467 15.5666 59.8C15.6599 59.4533 15.7066 59.1267 15.7066 58.82C15.7066 58.0067 15.4266 57.3667 14.8666 56.9C14.3199 56.4333 13.5066 56.2 12.4266 56.2C11.5999 56.2 10.8666 56.3267 10.2266 56.58C9.5999 56.8333 9.0599 57.2267 8.60656 57.76L7.58656 56.88C8.13323 56.24 8.83323 55.7467 9.68656 55.4C10.5399 55.0533 11.4932 54.88 12.5466 54.88C13.4932 54.88 14.3132 55.0333 15.0066 55.34C15.6999 55.6333 16.2332 56.0667 16.6066 56.64C16.9932 57.2133 17.1866 57.8867 17.1866 58.66C17.1866 59.1133 17.1199 59.56 16.9866 60C16.8666 60.44 16.6399 60.9067 16.3066 61.4C15.9866 61.88 15.5132 62.4267 14.8866 63.04L9.54656 68.28L9.14656 67.72H17.8266V69H8.00656ZM18.8175 69L23.2575 63.24L23.2375 63.94L19.0175 58.5H20.6175L24.0775 63L23.4775 62.98L26.9375 58.5H28.4975L24.2375 64L24.2575 63.24L28.7375 69H27.1175L23.4575 64.2L24.0175 64.28L20.4175 69H18.8175ZM40.4955 69.12C39.4555 69.12 38.4555 68.9533 37.4955 68.62C36.5488 68.2733 35.8155 67.8333 35.2955 67.3L35.8755 66.16C36.3688 66.64 37.0288 67.0467 37.8555 67.38C38.6955 67.7 39.5755 67.86 40.4955 67.86C41.3755 67.86 42.0888 67.7533 42.6355 67.54C43.1955 67.3133 43.6021 67.0133 43.8555 66.64C44.1221 66.2667 44.2555 65.8533 44.2555 65.4C44.2555 64.8533 44.0955 64.4133 43.7755 64.08C43.4688 63.7467 43.0621 63.4867 42.5555 63.3C42.0488 63.1 41.4888 62.9267 40.8755 62.78C40.2621 62.6333 39.6488 62.48 39.0355 62.32C38.4221 62.1467 37.8555 61.92 37.3355 61.64C36.8288 61.36 36.4155 60.9933 36.0955 60.54C35.7888 60.0733 35.6355 59.4667 35.6355 58.72C35.6355 58.0267 35.8155 57.3933 36.1755 56.82C36.5488 56.2333 37.1155 55.7667 37.8755 55.42C38.6355 55.06 39.6088 54.88 40.7955 54.88C41.5821 54.88 42.3621 54.9933 43.1355 55.22C43.9088 55.4333 44.5755 55.7333 45.1355 56.12L44.6355 57.3C44.0355 56.9 43.3955 56.6067 42.7155 56.42C42.0488 56.2333 41.4021 56.14 40.7755 56.14C39.9355 56.14 39.2421 56.2533 38.6955 56.48C38.1488 56.7067 37.7421 57.0133 37.4755 57.4C37.2221 57.7733 37.0955 58.2 37.0955 58.68C37.0955 59.2267 37.2488 59.6667 37.5555 60C37.8755 60.3333 38.2888 60.5933 38.7955 60.78C39.3155 60.9667 39.8821 61.1333 40.4955 61.28C41.1088 61.4267 41.7155 61.5867 42.3155 61.76C42.9288 61.9333 43.4888 62.16 43.9955 62.44C44.5155 62.7067 44.9288 63.0667 45.2355 63.52C45.5555 63.9733 45.7155 64.5667 45.7155 65.3C45.7155 65.98 45.5288 66.6133 45.1555 67.2C44.7821 67.7733 44.2088 68.24 43.4355 68.6C42.6755 68.9467 41.6955 69.12 40.4955 69.12ZM50.2602 61.26H57.6602V62.52H50.2602V61.26ZM50.4202 67.72H58.8402V69H48.9402V55H58.5402V56.28H50.4202V67.72ZM62.3191 69V55H63.5391L69.9391 65.92H69.2991L75.6391 55H76.8591V69H75.4391V57.22H75.7791L69.9391 67.22H69.2391L63.3591 57.22H63.7391V69H62.3191ZM88.155 69.12C87.3683 69.12 86.6283 68.9467 85.935 68.6C85.255 68.2533 84.7083 67.76 84.295 67.12L85.155 66.12C85.5417 66.68 85.9883 67.1067 86.495 67.4C87.0017 67.6933 87.5617 67.84 88.175 67.84C89.9083 67.84 90.775 66.8133 90.775 64.76V56.28H85.655V55H92.235V64.7C92.235 66.18 91.8883 67.2867 91.195 68.02C90.515 68.7533 89.5017 69.12 88.155 69.12ZM102.315 69.12C100.528 69.12 99.1212 68.6067 98.0945 67.58C97.0679 66.5533 96.5545 65.0333 96.5545 63.02V55H98.0345V62.96C98.0345 64.6133 98.4079 65.8333 99.1545 66.62C99.9012 67.4067 100.955 67.8 102.315 67.8C103.688 67.8 104.748 67.4067 105.495 66.62C106.241 65.8333 106.615 64.6133 106.615 62.96V55H108.055V63.02C108.055 65.0333 107.541 66.5533 106.515 67.58C105.501 68.6067 104.101 69.12 102.315 69.12ZM112.514 69V55H117.754C118.941 55 119.961 55.1933 120.814 55.58C121.668 55.9533 122.321 56.5 122.774 57.22C123.241 57.9267 123.474 58.7867 123.474 59.8C123.474 60.7867 123.241 61.64 122.774 62.36C122.321 63.0667 121.668 63.6133 120.814 64C119.961 64.3733 118.941 64.56 117.754 64.56H113.334L113.994 63.88V69H112.514ZM122.074 69L118.474 63.92H120.074L123.694 69H122.074ZM113.994 64L113.334 63.3H117.714C119.114 63.3 120.174 62.9933 120.894 62.38C121.628 61.7667 121.994 60.9067 121.994 59.8C121.994 58.68 121.628 57.8133 120.894 57.2C120.174 56.5867 119.114 56.28 117.714 56.28H113.334L113.994 55.58V64ZM133.088 69.12C132.034 69.12 131.054 68.9467 130.148 68.6C129.254 68.24 128.474 67.74 127.808 67.1C127.154 66.4467 126.641 65.6933 126.268 64.84C125.908 63.9733 125.728 63.0267 125.728 62C125.728 60.9733 125.908 60.0333 126.268 59.18C126.641 58.3133 127.154 57.56 127.808 56.92C128.474 56.2667 129.254 55.7667 130.148 55.42C131.041 55.06 132.021 54.88 133.088 54.88C134.141 54.88 135.114 55.06 136.008 55.42C136.901 55.7667 137.674 56.26 138.328 56.9C138.994 57.54 139.508 58.2933 139.868 59.16C140.241 60.0267 140.428 60.9733 140.428 62C140.428 63.0267 140.241 63.9733 139.868 64.84C139.508 65.7067 138.994 66.46 138.328 67.1C137.674 67.74 136.901 68.24 136.008 68.6C135.114 68.9467 134.141 69.12 133.088 69.12ZM133.088 67.8C133.928 67.8 134.701 67.66 135.408 67.38C136.128 67.0867 136.748 66.68 137.268 66.16C137.801 65.6267 138.214 65.0133 138.508 64.32C138.801 63.6133 138.948 62.84 138.948 62C138.948 61.16 138.801 60.3933 138.508 59.7C138.214 58.9933 137.801 58.38 137.268 57.86C136.748 57.3267 136.128 56.92 135.408 56.64C134.701 56.3467 133.928 56.2 133.088 56.2C132.248 56.2 131.468 56.3467 130.748 56.64C130.028 56.92 129.401 57.3267 128.868 57.86C128.348 58.38 127.934 58.9933 127.627 59.7C127.334 60.3933 127.188 61.16 127.188 62C127.188 62.8267 127.334 63.5933 127.627 64.3C127.934 65.0067 128.348 65.6267 128.868 66.16C129.401 66.68 130.028 67.0867 130.748 67.38C131.468 67.66 132.248 67.8 133.088 67.8ZM147.605 69.12C146.565 69.12 145.565 68.9533 144.605 68.62C143.658 68.2733 142.925 67.8333 142.405 67.3L142.985 66.16C143.478 66.64 144.138 67.0467 144.965 67.38C145.805 67.7 146.685 67.86 147.605 67.86C148.485 67.86 149.198 67.7533 149.745 67.54C150.305 67.3133 150.712 67.0133 150.965 66.64C151.232 66.2667 151.365 65.8533 151.365 65.4C151.365 64.8533 151.205 64.4133 150.885 64.08C150.578 63.7467 150.172 63.4867 149.665 63.3C149.158 63.1 148.598 62.9267 147.985 62.78C147.372 62.6333 146.758 62.48 146.145 62.32C145.532 62.1467 144.965 61.92 144.445 61.64C143.938 61.36 143.525 60.9933 143.205 60.54C142.898 60.0733 142.745 59.4667 142.745 58.72C142.745 58.0267 142.925 57.3933 143.285 56.82C143.658 56.2333 144.225 55.7667 144.985 55.42C145.745 55.06 146.718 54.88 147.905 54.88C148.692 54.88 149.472 54.9933 150.245 55.22C151.018 55.4333 151.685 55.7333 152.245 56.12L151.745 57.3C151.145 56.9 150.505 56.6067 149.825 56.42C149.158 56.2333 148.512 56.14 147.885 56.14C147.045 56.14 146.352 56.2533 145.805 56.48C145.258 56.7067 144.852 57.0133 144.585 57.4C144.332 57.7733 144.205 58.2 144.205 58.68C144.205 59.2267 144.358 59.6667 144.665 60C144.985 60.3333 145.398 60.5933 145.905 60.78C146.425 60.9667 146.992 61.1333 147.605 61.28C148.218 61.4267 148.825 61.5867 149.425 61.76C150.038 61.9333 150.598 62.16 151.105 62.44C151.625 62.7067 152.038 63.0667 152.345 63.52C152.665 63.9733 152.825 64.5667 152.825 65.3C152.825 65.98 152.638 66.6133 152.265 67.2C151.892 67.7733 151.318 68.24 150.545 68.6C149.785 68.9467 148.805 69.12 147.605 69.12Z" fill="black"/>
<path d="M59 9.5C59 8.24022 59.5004 7.03204 60.3912 6.14124C61.282 5.25044 62.4902 4.75 63.75 4.75H92.25C93.5098 4.75 94.718 5.25044 95.6088 6.14124C96.4996 7.03204 97 8.24022 97 9.5V28.5C97 29.7598 96.4996 30.968 95.6088 31.8588C94.718 32.7496 93.5098 33.25 92.25 33.25H63.75C62.4902 33.25 61.282 32.7496 60.3912 31.8588C59.5004 30.968 59 29.7598 59 28.5V9.5ZM63.75 7.125C63.1201 7.125 62.516 7.37522 62.0706 7.82062C61.6252 8.26602 61.375 8.87011 61.375 9.5V11.875H94.625V9.5C94.625 8.87011 94.3748 8.26602 93.9294 7.82062C93.484 7.37522 92.8799 7.125 92.25 7.125H63.75ZM94.625 16.625H61.375V28.5C61.375 29.1299 61.6252 29.734 62.0706 30.1794C62.516 30.6248 63.1201 30.875 63.75 30.875H92.25C92.8799 30.875 93.484 30.6248 93.9294 30.1794C94.3748 29.734 94.625 29.1299 94.625 28.5V16.625Z" fill="#FF33A9"/>
<path d="M63.75 23.75C63.75 23.1201 64.0002 22.516 64.4456 22.0706C64.891 21.6252 65.4951 21.375 66.125 21.375H68.5C69.1299 21.375 69.734 21.6252 70.1794 22.0706C70.6248 22.516 70.875 23.1201 70.875 23.75V26.125C70.875 26.7549 70.6248 27.359 70.1794 27.8044C69.734 28.2498 69.1299 28.5 68.5 28.5H66.125C65.4951 28.5 64.891 28.2498 64.4456 27.8044C64.0002 27.359 63.75 26.7549 63.75 26.125V23.75Z" fill="#FF33A9"/>
<path d="M317.46 69.12C316.46 69.12 315.507 68.96 314.6 68.64C313.693 68.3067 312.973 67.8667 312.44 67.32L313.14 66.18C313.58 66.6467 314.18 67.0333 314.94 67.34C315.713 67.6467 316.547 67.8 317.44 67.8C318.627 67.8 319.527 67.54 320.14 67.02C320.767 66.4867 321.08 65.7933 321.08 64.94C321.08 64.34 320.933 63.8267 320.64 63.4C320.36 62.96 319.88 62.62 319.2 62.38C318.52 62.14 317.587 62.02 316.4 62.02H313.42L314.14 55H321.8V56.28H314.72L315.46 55.58L314.84 61.46L314.1 60.74H316.72C318.133 60.74 319.267 60.9133 320.12 61.26C320.973 61.6067 321.587 62.0933 321.96 62.72C322.347 63.3333 322.54 64.0533 322.54 64.88C322.54 65.6667 322.353 66.3867 321.98 67.04C321.607 67.68 321.047 68.1867 320.3 68.56C319.553 68.9333 318.607 69.12 317.46 69.12ZM326.053 69L335.613 55H336.793L327.233 69H326.053ZM327.133 62.5C326.506 62.5 325.953 62.3467 325.473 62.04C324.993 61.72 324.619 61.2733 324.353 60.7C324.099 60.1267 323.973 59.46 323.973 58.7C323.973 57.94 324.099 57.2733 324.353 56.7C324.619 56.1267 324.993 55.6867 325.473 55.38C325.953 55.06 326.506 54.9 327.133 54.9C327.759 54.9 328.306 55.06 328.773 55.38C329.253 55.6867 329.626 56.1267 329.893 56.7C330.159 57.2733 330.293 57.94 330.293 58.7C330.293 59.46 330.159 60.1267 329.893 60.7C329.626 61.2733 329.253 61.72 328.773 62.04C328.306 62.3467 327.759 62.5 327.133 62.5ZM327.133 61.6C327.786 61.6 328.306 61.3467 328.693 60.84C329.093 60.32 329.293 59.6067 329.293 58.7C329.293 57.7933 329.093 57.0867 328.693 56.58C328.306 56.06 327.786 55.8 327.133 55.8C326.466 55.8 325.939 56.06 325.553 56.58C325.166 57.0867 324.973 57.7933 324.973 58.7C324.973 59.6067 325.166 60.32 325.553 60.84C325.939 61.3467 326.466 61.6 327.133 61.6ZM335.713 69.1C335.099 69.1 334.553 68.9467 334.073 68.64C333.593 68.32 333.219 67.8733 332.953 67.3C332.686 66.7267 332.553 66.06 332.553 65.3C332.553 64.54 332.686 63.8733 332.953 63.3C333.219 62.7267 333.593 62.2867 334.073 61.98C334.553 61.66 335.099 61.5 335.713 61.5C336.353 61.5 336.906 61.66 337.373 61.98C337.853 62.2867 338.219 62.7267 338.473 63.3C338.739 63.8733 338.873 64.54 338.873 65.3C338.873 66.06 338.739 66.7267 338.473 67.3C338.219 67.8733 337.853 68.32 337.373 68.64C336.906 68.9467 336.353 69.1 335.713 69.1ZM335.713 68.2C336.366 68.2 336.886 67.9467 337.273 67.44C337.673 66.92 337.873 66.2067 337.873 65.3C337.873 64.3933 337.673 63.6867 337.273 63.18C336.886 62.66 336.366 62.4 335.713 62.4C335.059 62.4 334.533 62.66 334.133 63.18C333.746 63.6867 333.553 64.3933 333.553 65.3C333.553 66.2067 333.746 66.92 334.133 67.44C334.533 67.9467 335.059 68.2 335.713 68.2ZM351.209 69L345.009 55H346.609L352.409 68.18H351.529L357.369 55H358.869L352.669 69H351.209ZM360.901 69V55H362.381V69H360.901ZM364.696 69L371.096 55H372.556L378.956 69H377.396L371.516 55.86H372.116L366.236 69H364.696ZM367.216 65.26L367.656 64.06H375.796L376.236 65.26H367.216ZM386.507 69V55H391.747C392.933 55 393.953 55.1933 394.807 55.58C395.66 55.9533 396.313 56.5 396.767 57.22C397.233 57.9267 397.467 58.7867 397.467 59.8C397.467 60.7867 397.233 61.64 396.767 62.36C396.313 63.0667 395.66 63.6133 394.807 64C393.953 64.3867 392.933 64.58 391.747 64.58H387.327L387.987 63.88V69H386.507ZM387.987 64L387.327 63.28H391.707C393.107 63.28 394.167 62.98 394.887 62.38C395.62 61.7667 395.987 60.9067 395.987 59.8C395.987 58.68 395.62 57.8133 394.887 57.2C394.167 56.5867 393.107 56.28 391.707 56.28H387.327L387.987 55.58V64ZM400.667 69V55H402.147V69H400.667ZM404.762 69L410.502 61.24V62.38L405.102 55H406.802L411.342 61.16L410.682 61.18L415.222 55H416.822L411.482 62.28V61.24L417.202 69H415.482L410.642 62.42H411.262L406.462 69H404.762Z" fill="black"/>
<path d="M584.6 61.78H592V63.06H584.6V61.78ZM584.76 69H583.28V55H592.88V56.28H584.76V69ZM595.936 69V55H601.176C602.363 55 603.383 55.1933 604.236 55.58C605.09 55.9533 605.743 56.5 606.196 57.22C606.663 57.9267 606.896 58.7867 606.896 59.8C606.896 60.7867 606.663 61.64 606.196 62.36C605.743 63.0667 605.09 63.6133 604.236 64C603.383 64.3733 602.363 64.56 601.176 64.56H596.756L597.416 63.88V69H595.936ZM605.496 69L601.896 63.92H603.496L607.116 69H605.496ZM597.416 64L596.756 63.3H601.136C602.536 63.3 603.596 62.9933 604.316 62.38C605.05 61.7667 605.416 60.9067 605.416 59.8C605.416 58.68 605.05 57.8133 604.316 57.2C603.596 56.5867 602.536 56.28 601.136 56.28H596.756L597.416 55.58V64ZM611.709 61.26H619.109V62.52H611.709V61.26ZM611.869 67.72H620.289V69H610.389V55H619.989V56.28H611.869V67.72ZM626.488 69V56.28H621.568V55H632.888V56.28H627.968V69H626.488ZM636.573 61.26H643.973V62.52H636.573V61.26ZM636.733 67.72H645.153V69H635.253V55H644.853V56.28H636.733V67.72ZM660.006 69.12C658.939 69.12 657.953 68.9467 657.046 68.6C656.153 68.24 655.373 67.74 654.706 67.1C654.053 66.46 653.539 65.7067 653.166 64.84C652.806 63.9733 652.626 63.0267 652.626 62C652.626 60.9733 652.806 60.0267 653.166 59.16C653.539 58.2933 654.059 57.54 654.726 56.9C655.393 56.26 656.173 55.7667 657.066 55.42C657.973 55.06 658.959 54.88 660.026 54.88C661.093 54.88 662.066 55.0467 662.946 55.38C663.839 55.7133 664.599 56.22 665.226 56.9L664.306 57.84C663.719 57.2533 663.073 56.8333 662.366 56.58C661.659 56.3267 660.899 56.2 660.086 56.2C659.219 56.2 658.419 56.3467 657.686 56.64C656.966 56.92 656.333 57.3267 655.786 57.86C655.253 58.38 654.833 58.9933 654.526 59.7C654.233 60.3933 654.086 61.16 654.086 62C654.086 62.8267 654.233 63.5933 654.526 64.3C654.833 65.0067 655.253 65.6267 655.786 66.16C656.333 66.68 656.966 67.0867 657.686 67.38C658.419 67.66 659.213 67.8 660.066 67.8C660.866 67.8 661.619 67.68 662.326 67.44C663.046 67.2 663.706 66.7933 664.306 66.22L665.146 67.34C664.479 67.9267 663.699 68.3733 662.806 68.68C661.913 68.9733 660.979 69.12 660.006 69.12ZM663.726 67.16V62H665.146V67.34L663.726 67.16ZM669.335 69V55H674.575C675.761 55 676.781 55.1933 677.635 55.58C678.488 55.9533 679.141 56.5 679.595 57.22C680.061 57.9267 680.295 58.7867 680.295 59.8C680.295 60.7867 680.061 61.64 679.595 62.36C679.141 63.0667 678.488 63.6133 677.635 64C676.781 64.3733 675.761 64.56 674.575 64.56H670.155L670.815 63.88V69H669.335ZM678.895 69L675.295 63.92H676.895L680.515 69H678.895ZM670.815 64L670.155 63.3H674.535C675.935 63.3 676.995 62.9933 677.715 62.38C678.448 61.7667 678.815 60.9067 678.815 59.8C678.815 58.68 678.448 57.8133 677.715 57.2C676.995 56.5867 675.935 56.28 674.535 56.28H670.155L670.815 55.58V64ZM681.548 69L687.948 55H689.408L695.808 69H694.248L688.368 55.86H688.968L683.088 69H681.548ZM684.068 65.26L684.508 64.06H692.648L693.088 65.26H684.068ZM687.388 53.86L690.128 51.38H692.028L688.788 53.86H687.388ZM700.141 69V56.28H695.221V55H706.541V56.28H701.621V69H700.141ZM708.905 69V55H710.385V69H708.905ZM718.8 69.12C717.76 69.12 716.76 68.9533 715.8 68.62C714.853 68.2733 714.12 67.8333 713.6 67.3L714.18 66.16C714.673 66.64 715.333 67.0467 716.16 67.38C717 67.7 717.88 67.86 718.8 67.86C719.68 67.86 720.393 67.7533 720.94 67.54C721.5 67.3133 721.907 67.0133 722.16 66.64C722.427 66.2667 722.56 65.8533 722.56 65.4C722.56 64.8533 722.4 64.4133 722.08 64.08C721.773 63.7467 721.367 63.4867 720.86 63.3C720.353 63.1 719.793 62.9267 719.18 62.78C718.567 62.6333 717.953 62.48 717.34 62.32C716.727 62.1467 716.16 61.92 715.64 61.64C715.133 61.36 714.72 60.9933 714.4 60.54C714.093 60.0733 713.94 59.4667 713.94 58.72C713.94 58.0267 714.12 57.3933 714.48 56.82C714.853 56.2333 715.42 55.7667 716.18 55.42C716.94 55.06 717.913 54.88 719.1 54.88C719.887 54.88 720.667 54.9933 721.44 55.22C722.213 55.4333 722.88 55.7333 723.44 56.12L722.94 57.3C722.34 56.9 721.7 56.6067 721.02 56.42C720.353 56.2333 719.707 56.14 719.08 56.14C718.24 56.14 717.547 56.2533 717 56.48C716.453 56.7067 716.047 57.0133 715.78 57.4C715.527 57.7733 715.4 58.2 715.4 58.68C715.4 59.2267 715.553 59.6667 715.86 60C716.18 60.3333 716.593 60.5933 717.1 60.78C717.62 60.9667 718.187 61.1333 718.8 61.28C719.413 61.4267 720.02 61.5867 720.62 61.76C721.233 61.9333 721.793 62.16 722.3 62.44C722.82 62.7067 723.233 63.0667 723.54 63.52C723.86 63.9733 724.02 64.5667 724.02 65.3C724.02 65.98 723.833 66.6133 723.46 67.2C723.087 67.7733 722.513 68.24 721.74 68.6C720.98 68.9467 720 69.12 718.8 69.12Z" fill="black"/>
<path d="M351.75 32.3V5.7C351.75 5.44804 351.85 5.20641 352.028 5.02825C352.206 4.85009 352.448 4.75 352.7 4.75H379.3C379.552 4.75 379.794 4.85009 379.972 5.02825C380.15 5.20641 380.25 5.44804 380.25 5.7V32.3C380.25 32.552 380.15 32.7936 379.972 32.9718C379.794 33.1499 379.552 33.25 379.3 33.25H352.7C352.448 33.25 352.206 33.1499 352.028 32.9718C351.85 32.7936 351.75 32.552 351.75 32.3Z" stroke="#FF33A9" stroke-width="1.5"/>
<path d="M371.542 25.3333C371.752 25.3333 371.953 25.2499 372.101 25.1014C372.25 24.953 372.333 24.7516 372.333 24.5417C372.333 24.3317 372.25 24.1303 372.101 23.9819C371.953 23.8334 371.752 23.75 371.542 23.75C371.332 23.75 371.13 23.8334 370.982 23.9819C370.833 24.1303 370.75 24.3317 370.75 24.5417C370.75 24.7516 370.833 24.953 370.982 25.1014C371.13 25.2499 371.332 25.3333 371.542 25.3333ZM360.458 14.25C360.668 14.25 360.87 14.1666 361.018 14.0181C361.167 13.8697 361.25 13.6683 361.25 13.4583C361.25 13.2484 361.167 13.047 361.018 12.8985C360.87 12.7501 360.668 12.6667 360.458 12.6667C360.248 12.6667 360.047 12.7501 359.899 12.8985C359.75 13.047 359.667 13.2484 359.667 13.4583C359.667 13.6683 359.75 13.8697 359.899 14.0181C360.047 14.1666 360.248 14.25 360.458 14.25Z" fill="black" stroke="#FF33A9" stroke-width="1.5" stroke-linecap="round" stroke-linejoin="round"/>
<path d="M372.333 12.6667L359.667 25.3333" stroke="#FF33A9" stroke-width="1.5" stroke-linecap="round" stroke-linejoin="round"/>
<path d="M670.53 19.7244L666.968 11.4119C666.877 11.1972 666.725 11.0141 666.53 10.8853C666.336 10.7565 666.108 10.6877 665.875 10.6875H662.312V8.3125C662.312 7.99756 662.187 7.69551 661.965 7.47281C661.742 7.25011 661.44 7.125 661.125 7.125H638.562C638.248 7.125 637.946 7.25011 637.723 7.47281C637.5 7.69551 637.375 7.99756 637.375 8.3125V28.5C637.375 28.8149 637.5 29.117 637.723 29.3397C637.946 29.5624 638.248 29.6875 638.562 29.6875H641.104C641.377 30.6938 641.974 31.5821 642.803 32.2154C643.631 32.8487 644.645 33.1918 645.688 33.1918C646.73 33.1918 647.744 32.8487 648.572 32.2154C649.401 31.5821 649.998 30.6938 650.271 29.6875H657.729C658.002 30.6938 658.599 31.5821 659.428 32.2154C660.256 32.8487 661.27 33.1918 662.312 33.1918C663.355 33.1918 664.369 32.8487 665.197 32.2154C666.026 31.5821 666.623 30.6938 666.896 29.6875H669.438C669.752 29.6875 670.054 29.5624 670.277 29.3397C670.5 29.117 670.625 28.8149 670.625 28.5V20.1875C670.625 20.0283 670.592 19.8708 670.53 19.7244ZM662.312 13.0625H665.091L667.632 19H662.312V13.0625ZM645.688 30.875C645.218 30.875 644.759 30.7357 644.368 30.4747C643.977 30.2138 643.673 29.8428 643.493 29.4089C643.314 28.9749 643.266 28.4974 643.358 28.0367C643.45 27.576 643.676 27.1528 644.008 26.8206C644.34 26.4885 644.763 26.2623 645.224 26.1706C645.685 26.079 646.162 26.126 646.596 26.3058C647.03 26.4855 647.401 26.79 647.662 27.1805C647.923 27.5711 648.062 28.0303 648.062 28.5C648.062 29.1299 647.812 29.734 647.367 30.1794C646.921 30.6248 646.317 30.875 645.688 30.875ZM657.729 27.3125H650.271C649.998 26.3062 649.401 25.4179 648.572 24.7846C647.744 24.1513 646.73 23.8082 645.688 23.8082C644.645 23.8082 643.631 24.1513 642.803 24.7846C641.974 25.4179 641.377 26.3062 641.104 27.3125H639.75V9.5H659.938V24.415C659.397 24.7288 658.923 25.1463 658.544 25.6436C658.165 26.1408 657.888 26.7079 657.729 27.3125ZM662.312 30.875C661.843 30.875 661.384 30.7357 660.993 30.4747C660.602 30.2138 660.298 29.8428 660.118 29.4089C659.939 28.9749 659.891 28.4974 659.983 28.0367C660.075 27.576 660.301 27.1528 660.633 26.8206C660.965 26.4885 661.388 26.2623 661.849 26.1706C662.31 26.079 662.787 26.126 663.221 26.3058C663.655 26.4855 664.026 26.79 664.287 27.1805C664.548 27.5711 664.688 28.0303 664.688 28.5C664.688 29.1299 664.437 29.734 663.992 30.1794C663.546 30.6248 662.942 30.875 662.312 30.875ZM668.25 27.3125H666.896C666.634 26.2954 666.041 25.3941 665.212 24.7495C664.383 24.1049 663.363 23.7534 662.312 23.75V21.375H668.25V27.3125Z" fill="#FF33A9"/>
</svg>
